<svg width="420" height="107" viewBox="0 0 420 107" fill="none" xmlns="http://www.w3.org/2000/svg">
<g clip-path="url(#clip0_304_5)">
<path d="M9.2909 48.5738C6.47893 47.7028 0.788036 49.6458 0.0515677 43.5492C-0.484046 39.3285 3.26525 39.3955 6.07722 39.7306C9.89346 40.1325 14.9818 39.1945 15.986 44.4201C16.7226 48.0379 13.5758 49.0428 9.2909 48.5738Z" fill="#7F44D3"/>
<path d="M56.6258 8.10914C56.0901 11.3919 56.8266 15.7465 51.9392 15.8805C46.3152 16.0145 47.1856 11.3249 47.1856 7.77416C47.2525 4.49141 46.583 0.069764 51.5374 0.00276926C57.0944 -0.13122 56.1571 4.6254 56.6258 8.10914Z" fill="#7F44D3"/>
<path d="M30.046 20.3691C29.9791 23.3839 28.5731 25.7957 26.1628 25.3937C20.9406 24.4557 18.1956 20.1681 16.5888 15.5454C15.7184 13.0667 17.8608 10.5209 20.2711 10.9229C25.4934 11.8608 27.7027 16.4834 30.046 20.3691Z" fill="#7F44D3"/>
<path d="M94.2526 48.708C90.0345 49.1099 86.687 48.306 87.4235 44.5543C88.3608 39.3957 93.4491 40.1327 97.3323 39.6637C100.345 39.3287 104.028 39.5966 103.626 43.4823C102.889 49.6458 97.0645 47.636 94.2526 48.708Z" fill="#7F44D3"/>
<path d="M87.0217 15.9475C85.0131 19.8332 82.8038 24.4559 77.5146 25.3937C75.1044 25.7957 73.0288 23.317 73.7652 20.7711C75.1713 16.2824 78.0502 12.3967 82.7369 11.0568C85.214 10.3199 86.8208 12.5977 87.0217 15.9475Z" fill="#7F44D3"/>
<path d="M70.4177 30.9543C69.7482 30.3514 69.6143 30.2173 70.4177 30.9543C60.8437 22.4461 46.0474 21.776 35.5359 28.8105C24.4889 36.1799 20.6057 50.1148 25.4262 62.3078C27.1 66.4615 29.6441 70.2803 31.9205 74.0989C33.7951 77.3147 35.7368 80.5974 37.6114 83.8131C40.4234 88.6368 43.2353 93.4603 46.0474 98.217C47.3863 100.562 48.7923 102.907 50.1314 105.185C50.1314 93.5274 50.1314 81.8033 50.1314 70.1463C50.1314 67.3324 50.1314 64.5187 50.1314 61.6379C47.5872 60.9679 45.7795 58.6901 45.7795 55.9433C45.7795 52.6606 48.3907 50.0478 51.6713 50.0478C54.9519 50.0478 57.5631 52.6606 57.5631 55.9433C57.5631 58.6901 55.6883 60.9679 53.1442 61.6379C53.1442 64.4517 53.1442 67.2655 53.1442 70.1463C53.1442 81.8033 53.1442 93.5274 53.1442 105.185C58.2325 96.5422 63.2539 87.8998 68.3422 79.3246C71.9576 73.1611 76.5104 66.9305 78.7197 60.164C82.2013 49.5118 78.7197 38.3237 70.4177 30.9543ZM32.3892 56.0773C30.5816 46.4971 33.1256 39.9986 40.0887 35.2419C46.583 30.8203 53.4121 30.6863 62.3835 35.912C45.9134 34.974 37.6784 43.1473 32.3892 56.0773Z" fill="#7F44D3"/>
<path d="M129.432 87.0469L112.935 44.2098H119.589L132.622 79.7556L130.252 79.8467L143.195 44.2098H146.931L159.873 79.8467L157.504 79.7556L170.446 44.2098H177.191L160.602 87.0469H156.866L143.65 51.957H146.384L133.26 87.0469H129.432Z" fill="#463F4D"/>
<path d="M180.223 87.0469V44.2099H186.696V87.0469H180.223ZM183.414 34.9133C182.199 34.9133 181.166 34.488 180.316 33.6374C179.465 32.7258 179.039 31.6625 179.039 30.4473C179.039 29.1714 179.465 28.1079 180.316 27.2573C181.166 26.4066 182.199 25.9813 183.414 25.9813C184.751 25.9813 185.814 26.4066 186.605 27.2573C187.454 28.1079 187.88 29.1714 187.88 30.4473C187.88 31.6625 187.454 32.7258 186.605 33.6374C185.814 34.488 184.751 34.9133 183.414 34.9133Z" fill="#463F4D"/>
<path d="M201.723 87.0469V26.1636H208.195V87.0469H201.723ZM190.877 49.9518V44.2099H217.491H244.105V49.9518H190.877ZM226.88 87.0469V26.1636H233.351V87.0469H226.88Z" fill="#463F4D"/>
<path d="M262.588 87.2292L243.813 44.2098H250.831L265.961 80.1201H263.318L279.266 44.2098H286.376L266.234 87.2292H262.588ZM250.922 105.093L262.679 80.7581L266.234 87.2292L257.94 105.093H250.922Z" fill="#463F4D"/>
<path d="M311.262 87.9583C307.982 87.9583 305.035 87.29 302.421 85.9532C299.809 84.6165 297.651 82.7936 295.95 80.4847C294.309 78.1149 293.307 75.3807 292.943 72.2818V58.8838C293.307 55.7242 294.34 52.99 296.041 50.6809C297.744 48.3113 299.9 46.4884 302.513 45.2124C305.186 43.9364 308.102 43.2985 311.262 43.2985C315.211 43.2985 318.766 44.301 321.926 46.3061C325.086 48.2505 327.578 50.924 329.4 54.3267C331.283 57.6686 332.226 61.4663 332.226 65.7196C332.226 69.9122 331.314 73.6793 329.491 77.0212C327.669 80.3632 325.147 83.0366 321.926 85.0418C318.766 86.9862 315.211 87.9583 311.262 87.9583ZM310.169 81.8518C313.207 81.8518 315.881 81.1834 318.189 79.8467C320.498 78.4491 322.291 76.5352 323.567 74.1046C324.904 71.6135 325.571 68.788 325.571 65.6285C325.571 62.408 324.904 59.5826 323.567 57.1522C322.291 54.7216 320.498 52.8077 318.189 51.4102C315.881 50.0126 313.237 49.3138 310.26 49.3138C307.283 49.3138 304.64 50.0126 302.33 51.4102C300.082 52.8077 298.32 54.7216 297.044 57.1522C295.768 59.5826 295.13 62.408 295.13 65.6285C295.13 68.788 295.768 71.6135 297.044 74.1046C298.32 76.5352 300.082 78.4491 302.33 79.8467C304.578 81.1834 307.191 81.8518 310.169 81.8518ZM289.115 105.093V44.2099H295.495V55.1469L294.218 65.5373L295.495 76.0187V105.093H289.115Z" fill="#463F4D"/>
<path d="M357.651 87.9583C353.336 87.9583 349.478 86.9862 346.076 85.0418C342.672 83.0974 339.969 80.4239 337.964 77.0212C336.02 73.6185 335.047 69.7905 335.047 65.5373C335.047 61.3447 336.02 57.5775 337.964 54.2355C339.907 50.8328 342.551 48.1594 345.894 46.2149C349.236 44.2706 352.972 43.2985 357.104 43.2985C360.993 43.2985 364.426 44.1795 367.403 45.9415C370.441 47.7037 372.81 50.1645 374.513 53.3241C376.274 56.423 377.154 60.0079 377.154 64.0789C377.154 64.565 377.125 65.1422 377.063 65.8107C377.003 66.4183 376.881 67.1475 376.699 67.9981H339.604V62.5296H373.236L370.958 64.5346C371.018 61.3751 370.471 58.6712 369.317 56.423C368.222 54.114 366.612 52.352 364.486 51.1366C362.421 49.8607 359.899 49.2227 356.922 49.2227C353.822 49.2227 351.119 49.8911 348.81 51.2279C346.501 52.5646 344.677 54.4482 343.342 56.8787C342.065 59.2484 341.428 62.0739 341.428 65.355C341.428 68.6361 342.096 71.5223 343.433 74.0135C344.83 76.5048 346.744 78.4491 349.174 79.8467C351.666 81.2442 354.521 81.9429 357.742 81.9429C360.354 81.9429 362.754 81.4872 364.942 80.5758C367.129 79.6037 368.983 78.1757 370.502 76.2921L374.604 80.4847C372.597 82.8543 370.107 84.7077 367.129 86.0444C364.213 87.3203 361.053 87.9583 357.651 87.9583Z" fill="#463F4D"/>
<path d="M413.529 87.0469V61.8916C413.529 58.1243 412.405 55.0862 410.157 52.7773C407.97 50.4075 405.052 49.2227 401.407 49.2227C398.916 49.2227 396.728 49.7695 394.845 50.8632C392.96 51.957 391.472 53.4457 390.379 55.3292C389.285 57.2129 388.738 59.3699 388.738 61.8004L385.822 60.1598C385.822 56.9395 386.581 54.0533 388.1 51.5013C389.619 48.9493 391.654 46.9442 394.206 45.4858C396.819 44.0276 399.797 43.2985 403.138 43.2985C406.42 43.2985 409.336 44.0883 411.888 45.6681C414.441 47.248 416.415 49.3746 417.813 52.0482C419.271 54.7216 420 57.6382 420 60.7979V87.0469H413.529ZM382.358 87.0469V44.2099H388.738V87.0469H382.358Z" fill="#463F4D"/>
</g>
<defs>
<clipPath id="clip0_304_5">
<rect width="420" height="106.4" fill="white"/>
</clipPath>
</defs>
</svg>
